<svg xmlns="http://www.w3.org/2000/svg" viewBox="0 0 81.2 103.66">
  <defs>
    <style>
      .cls-1 { fill: #FDFDFD; }
      @media (prefers-color-scheme: light) {
        .cls-1 { fill: #1a1a1a; }
      }
    </style>
  </defs>
  <g id="Camada_2" data-name="Camada 2">
    <g id="Camada_1-2" data-name="Camada 1">
      <path class="cls-1" d="M50.53,7.39V43.88a7.39,7.39,0,0,1-7.39,7.39H39.78a7.38,7.38,0,0,1-5.67-2.65l-16-19.09a.73.73,0,0,0-1.3.47V43.88a7.39,7.39,0,0,1-7.39,7.39H7.39A7.39,7.39,0,0,1,0,43.88V7.39A7.39,7.39,0,0,1,7.39,0h3.36a7.38,7.38,0,0,1,5.67,2.65l16,19.09a.74.74,0,0,0,1.3-.47V7.39A7.39,7.39,0,0,1,41.08,0h2.06A7.39,7.39,0,0,1,50.53,7.39Z"/>
      <path class="cls-1" d="M71.41,0h0A9.8,9.8,0,0,1,81.2,9.8V40.59a9.79,9.79,0,0,1-9.79,9.79h0a9.79,9.79,0,0,1-9.8-9.79V9.8A9.8,9.8,0,0,1,71.41,0Z"/>
      <path class="cls-1" d="M25.05,79.68A9.05,9.05,0,0,0,30.57,88a5.93,5.93,0,0,1,3.52,5.51v2.42a6.66,6.66,0,0,1-5.93,6.64l-1.14.1-.59,0H23.14l-.6,0C9.54,101.76.24,92.58.24,79.8c0-13.49,10.35-23,24.47-23a30.64,30.64,0,0,1,3.35.18,5.55,5.55,0,0,1,.8.13,6.69,6.69,0,0,1,3.76,2.34,6.62,6.62,0,0,1,1.47,4.17v2.2a5.93,5.93,0,0,1-3.52,5.51A9,9,0,0,0,25.05,79.68Z"/>
      <path class="cls-1" d="M64.76,80.7,79.84,95.78a4.61,4.61,0,0,1-3.26,7.88H46.42a4.62,4.62,0,0,1-4.62-4.61V62.35a4.62,4.62,0,0,1,4.62-4.61H76.58a4.61,4.61,0,0,1,3.26,7.88Z"/>
    </g>
  </g>
</svg>
